<svg width="35" height="35" viewBox="0 0 35 35" fill="none" xmlns="http://www.w3.org/2000/svg">
<rect width="35" height="35" rx="6" fill="#D9CAF5"/>
<path d="M18.6839 24.672L13.4788 10.1499H9.94981V11.0048L5.25 24.672H7.97619L9.32841 20.9369H14.2803L15.6385 24.672H18.6839ZM9.87123 18.4768L11.8007 12.4249L13.726 18.4768H9.87123Z" fill="#424242"/>
<path d="M29.6503 19.8058C29.9477 17.7018 29.5736 15.9444 28.6076 14.8815C27.6713 13.8515 26.1649 13.4825 25.0037 13.4825C25.0037 13.4825 19.5296 13.4825 19.5296 19.1671C19.5296 24.8517 24.5389 24.8388 24.5389 24.8388C26.2314 24.8976 27.6882 24.726 28.8119 24.2442V21.8C25.5864 22.7336 23.2108 22.5473 22.7031 19.9033C25.7932 19.9539 28.7642 19.9897 29.6503 19.8058ZM22.7514 17.8898C22.7514 17.8898 22.8802 15.8657 24.7843 15.8657C26.6884 15.8657 26.8172 17.3492 26.8172 17.3492C26.8256 17.7394 26.8292 17.8827 26.4696 17.8898H22.7514Z" fill="#424242"/>
</svg>
