<svg width="35" height="35" viewBox="0 0 35 35" fill="none" xmlns="http://www.w3.org/2000/svg">
<path d="M20.4167 16.0416V27.7083H7.29167V16.0416H20.4167ZM35 16.0416V27.7083C35 31.7289 31.729 35 27.7083 35H7.29167C3.27104 35 0 31.7289 0 27.7083V16.0416C0 12.021 3.27104 8.7499 7.29167 8.7499H14.3865L9.08833 2.39154C8.57208 1.77321 8.65667 0.852996 9.275 0.338202C9.89333 -0.17805 10.8121 -0.0934662 11.3283 0.524869L17.5 7.93031L23.6717 0.524869C24.1879 -0.0934662 25.1067 -0.176592 25.725 0.338202C26.3433 0.852996 26.4265 1.77321 25.9117 2.39154L20.6135 8.7499H27.7083C31.729 8.7499 35 12.021 35 16.0416ZM23.3333 16.0416C23.3333 14.433 22.0252 13.1249 20.4167 13.1249H7.29167C5.68313 13.1249 4.375 14.433 4.375 16.0416V27.7083C4.375 29.3169 5.68313 30.625 7.29167 30.625H20.4167C22.0252 30.625 23.3333 29.3169 23.3333 27.7083V16.0416ZM31.3542 25.5208C31.3542 24.3133 30.3742 23.3333 29.1667 23.3333C27.9592 23.3333 26.9792 24.3133 26.9792 25.5208C26.9792 26.7283 27.9592 27.7083 29.1667 27.7083C30.3742 27.7083 31.3542 26.7283 31.3542 25.5208ZM31.3542 18.2291C31.3542 17.0216 30.3742 16.0416 29.1667 16.0416C27.9592 16.0416 26.9792 17.0216 26.9792 18.2291C26.9792 19.4366 27.9592 20.4166 29.1667 20.4166C30.3742 20.4166 31.3542 19.4366 31.3542 18.2291Z" fill="#602DAE"/>
</svg>
