<svg width="35" height="35" viewBox="0 0 35 35" fill="none" xmlns="http://www.w3.org/2000/svg">
<rect width="35" height="35" rx="6" fill="#D9CAF5"/>
<path d="M9.88634 19.7461L20.7476 9.86734C20.7868 9.8319 20.8359 9.80922 20.8882 9.8023C20.9406 9.79537 20.9938 9.80452 21.0408 9.82854L25.0591 11.899C25.1015 11.9209 25.1371 11.9541 25.162 11.995C25.1868 12.0358 25.2 12.0828 25.2 12.1306V23.0455C25.2001 23.095 25.1861 23.1435 25.1597 23.1853C25.1333 23.2271 25.0957 23.2606 25.0511 23.2817L21.0386 25.1759C20.9922 25.1975 20.9404 25.2048 20.8899 25.197C20.8393 25.1892 20.7922 25.1666 20.7544 25.132L9.89202 15.1157C9.86562 15.0912 9.84456 15.0615 9.83015 15.0285C9.81574 14.9954 9.8083 14.9598 9.8083 14.9237C9.8083 14.8876 9.81574 14.8519 9.83015 14.8189C9.84456 14.7859 9.86562 14.7562 9.89202 14.7317L11.1992 13.5176C11.2439 13.476 11.3018 13.4515 11.3628 13.4484C11.4237 13.4454 11.4837 13.464 11.5323 13.5011L20.9186 20.6265C20.9572 20.6558 21.0031 20.6737 21.0512 20.6782C21.0993 20.6828 21.1477 20.6738 21.191 20.6522C21.2343 20.6306 21.2708 20.5973 21.2962 20.5561C21.3217 20.5149 21.3352 20.4673 21.3352 20.4188V14.4852C21.3354 14.4365 21.3219 14.3887 21.2964 14.3473C21.2709 14.3059 21.2343 14.2725 21.1908 14.2509C21.1473 14.2292 21.0986 14.2203 21.0503 14.225C21.002 14.2297 20.956 14.2479 20.9175 14.2776L11.5397 21.4777C11.4897 21.516 11.4276 21.5347 11.3649 21.5305C11.3022 21.5263 11.2431 21.4995 11.1987 21.4549L9.87724 20.1267C9.85204 20.1016 9.83219 20.0716 9.81893 20.0385C9.80567 20.0055 9.79927 19.9701 9.80012 19.9344C9.80098 19.8988 9.80906 19.8637 9.82388 19.8314C9.83871 19.799 9.85996 19.77 9.88634 19.7461Z" fill="#424242"/>
</svg>
