<svg width="35" height="35" viewBox="0 0 35 35" fill="none" xmlns="http://www.w3.org/2000/svg">
<rect width="35" height="35" rx="6" fill="#D9CAF5"/>
<path d="M14.25 8H17.5V14.3346H14.25C13.388 14.3346 12.5614 14.0009 11.9519 13.4069C11.3424 12.8129 11 12.0073 11 11.1673C11 10.3273 11.3424 9.52167 11.9519 8.92768C12.5614 8.3337 13.388 8 14.25 8Z" fill="#424242"/>
<path d="M17.5 8H20.75C21.612 8 22.4386 8.3337 23.0481 8.92768C23.6576 9.52167 24 10.3273 24 11.1673C24 12.0073 23.6576 12.8129 23.0481 13.4069C22.4386 14.0009 21.612 14.3346 20.75 14.3346H17.5V8Z" fill="#424242"/>
<path d="M24 17.5019C24 15.7527 22.5449 14.3346 20.75 14.3346C18.9551 14.3346 17.5 15.7527 17.5 17.5019C17.5 19.2512 18.9551 20.6692 20.75 20.6692C22.5449 20.6692 24 19.2512 24 17.5019Z" fill="#424242"/>
<path d="M14.25 14.3346H17.5V20.6692H14.25C13.388 20.6692 12.5614 20.3355 11.9519 19.7415C11.3424 19.1476 11 18.3419 11 17.5019C11 16.6619 11.3424 15.8563 11.9519 15.2623C12.5614 14.6683 13.388 14.3346 14.25 14.3346Z" fill="#424242"/>
<path d="M14.25 20.6685H17.5V23.8327C17.5 24.6727 17.1576 25.4783 16.5481 26.0723C15.9386 26.6663 15.112 27 14.25 27C13.388 27 12.5614 26.6663 11.9519 26.0723C11.3424 25.4783 11 24.6727 11 23.8327C11 22.9927 11.3424 22.1871 11.9519 21.5931C12.5614 20.9991 13.388 20.6654 14.25 20.6654V20.6685Z" fill="#424242"/>
</svg>
