<svg width="35" height="30" viewBox="0 0 35 30" fill="none" xmlns="http://www.w3.org/2000/svg">
<path d="M31.8252 6.50562C30.9838 3.93021 28.8283 2.08833 26.25 1.59833V1.45833C26.25 0.653333 25.5967 0 24.7917 0C23.9867 0 23.3333 0.653333 23.3333 1.45833H11.6667C11.6667 0.653333 11.0133 0 10.2083 0C9.40333 0 8.75 0.653333 8.75 1.45833V1.59833C6.17313 2.08833 4.01625 3.93021 3.17479 6.50562C0.539583 14.579 0 22.839 0 24.6094C0 27.1221 2.04458 29.1667 4.55729 29.1667C8.25271 29.1667 11.7658 23.1029 13.1075 19.896C13.3452 19.3258 13.8746 18.9583 14.4579 18.9583H20.5435C21.1254 18.9583 21.6562 19.3258 21.894 19.896C23.2342 23.1029 26.7473 29.1667 30.4427 29.1667C32.9554 29.1667 35 27.1221 35 24.6094C35 22.839 34.4604 14.579 31.8252 6.50562ZM10.9375 13.125C9.73 13.125 8.75 12.145 8.75 10.9375C8.75 9.73 9.73 8.75 10.9375 8.75C12.145 8.75 13.125 9.73 13.125 10.9375C13.125 12.145 12.145 13.125 10.9375 13.125ZM24.0625 13.125C22.855 13.125 21.875 12.145 21.875 10.9375C21.875 9.73 22.855 8.75 24.0625 8.75C25.27 8.75 26.25 9.73 26.25 10.9375C26.25 12.145 25.27 13.125 24.0625 13.125Z" fill="#602DAE"/>
</svg>
