<svg width="35" height="35" viewBox="0 0 35 35" fill="none" xmlns="http://www.w3.org/2000/svg">
<rect width="35" height="35" rx="6" fill="#D9CAF5"/>
<path d="M13.0426 10.0616H10.15V25.1872H13.0426V10.0616Z" fill="#424242"/>
<path d="M24.5283 23.2562C24.4859 22.9421 24.5283 9.44995 24.5283 9.44995H21.6787L21.7002 14.2666C21.7002 14.2666 21.1942 14.2451 20.3217 14.2451C17.7306 14.2451 14.9074 16.4121 14.9074 20.0361C14.9074 25.6353 19.9858 25.5499 19.9858 25.5499C21.8966 25.5499 23.8437 25.1195 24.85 24.4986C24.85 24.5005 24.5713 23.5697 24.5283 23.2562ZM21.7002 23.2826C21.7002 23.2826 20.7177 23.7081 19.723 23.3632C18.6117 22.979 17.4733 21.7341 17.4733 19.8793C17.4733 16.3635 20.3401 16.1865 20.6048 16.1865C21.4202 16.2049 21.6977 16.4766 21.6977 16.4766L21.7002 23.2826Z" fill="#424242"/>
</svg>
