<svg width="35" height="35" viewBox="0 0 35 35" fill="none" xmlns="http://www.w3.org/2000/svg">
<rect width="35" height="35" rx="6" fill="#D9CAF5"/>
<path d="M12.4931 9.80005H7.34998V24.8571H10.406V20.1149H12.4931C12.4931 20.1149 17.9179 20.1149 17.9179 14.9575C17.9179 9.80005 12.4931 9.80005 12.4931 9.80005ZM10.406 17.3289V12.5861H12.4362C12.4362 12.5861 14.9302 12.5861 14.9302 14.9575C14.9302 17.3289 12.4362 17.3289 12.4362 17.3289H10.406Z" fill="#424242"/>
<path d="M19.4621 21.599V24.4155C19.4621 24.4155 22.1586 25.7553 24.9 24.9332C27.6415 24.1111 27.6415 21.736 27.6415 21.736C27.6415 21.736 27.7913 20.4042 26.8325 19.3915C25.8738 18.3787 23.9449 17.7716 22.9376 17.3289C22.6709 17.2113 22.0987 16.8873 22.5103 16.2327C22.8177 15.7985 23.659 15.765 24.6226 15.8746C25.848 16.0116 27.1022 16.4988 27.1022 16.4988L27.0722 13.8345C27.0722 13.8345 24.6825 12.982 22.3306 13.4844C21.1854 13.728 20.1512 14.5349 19.7269 15.6596C19.3764 16.5889 19.4789 17.6017 19.9187 18.478C20.488 19.6125 22.6901 20.4115 23.7687 20.8835C24.8473 21.3554 24.5555 21.9796 24.5555 21.9796C24.5555 21.9796 24.323 22.7183 22.6302 22.5582C20.9374 22.398 19.4621 21.599 19.4621 21.599Z" fill="#424242"/>
</svg>
