<svg width="35" height="35" viewBox="0 0 35 35" fill="none" xmlns="http://www.w3.org/2000/svg">
<path d="M17.5 0C7.85021 0 0 7.85021 0 17.5C0 27.1498 7.85021 35 17.5 35C27.1498 35 35 27.1498 35 17.5C35 7.85021 27.1498 0 17.5 0ZM14.5833 10.2083C14.5833 8.59688 15.8885 7.29167 17.5 7.29167C19.1115 7.29167 20.4167 8.59688 20.4167 10.2083V17.5C20.4167 19.1115 19.1115 20.4167 17.5 20.4167C15.8885 20.4167 14.5833 19.1115 14.5833 17.5V10.2083ZM18.9583 26.1275V27.7083C18.9583 28.5133 18.3065 29.1667 17.5 29.1667C16.6935 29.1667 16.0417 28.5133 16.0417 27.7083V26.1275C11.9088 25.4319 8.75 21.8283 8.75 17.5C8.75 16.695 9.40188 16.0417 10.2083 16.0417C11.0148 16.0417 11.6667 16.695 11.6667 17.5C11.6667 20.7171 14.2829 23.3333 17.5 23.3333C20.7171 23.3333 23.3333 20.7171 23.3333 17.5C23.3333 16.695 23.9852 16.0417 24.7917 16.0417C25.5981 16.0417 26.25 16.695 26.25 17.5C26.25 21.8283 23.0913 25.4319 18.9583 26.1275Z" fill="#602DAE"/>
</svg>
