<svg width="35" height="35" viewBox="0 0 35 35" fill="none" xmlns="http://www.w3.org/2000/svg">
<rect width="35" height="35" rx="6" fill="#D9CAF5"/>
<path d="M12.9284 9.80005H7.69995V25.2H10.8067V20.3499H12.9284C12.9284 20.3499 18.4432 20.3499 18.4432 15.075C18.4432 9.80005 12.9284 9.80005 12.9284 9.80005ZM10.8067 17.5004V12.6496H12.8706C12.8706 12.6496 15.4059 12.6496 15.4059 15.075C15.4059 17.5004 12.8706 17.5004 12.8706 17.5004H10.8067Z" fill="#424242"/>
<path d="M20.4316 25.2V14.7941C20.3707 14.4141 20.3195 14.0093 20.2793 13.5639H23.1046C23.3751 13.8754 23.4457 14.426 23.4317 15.075C24.6663 13.8529 25.9557 13.2843 27.3 13.369V16.5381C25.7636 16.4515 24.513 16.7673 23.6145 17.5813V25.2H20.4316Z" fill="#424242"/>
</svg>
