<svg width="131" height="140" viewBox="0 0 131 140" fill="none" xmlns="http://www.w3.org/2000/svg">
<path d="M83.0249 1C82.8085 41.759 79.5447 48.5 36 48.5C79.5614 48.5 82.8085 55.241 82.9917 96C83.1748 55.241 86.4386 48.5 130 48.5C86.4553 48.5 83.2081 41.759 83.0249 1Z" fill="white" stroke="#602DAE" stroke-linecap="round" stroke-linejoin="round"/>
<path d="M33.017 56C32.8696 83.8878 30.6475 88.5 1 88.5C30.6588 88.5 32.8696 93.1123 32.9943 121C33.119 93.1123 35.3412 88.5 65 88.5C35.3525 88.5 33.1417 83.8878 33.017 56Z" fill="white" stroke="#602DAE" stroke-linecap="round" stroke-linejoin="round"/>
<path d="M70.0111 96C69.9144 114.449 68.4562 117.5 49 117.5C68.4636 117.5 69.9144 120.551 69.9963 139C70.0781 120.551 71.5364 117.5 91 117.5C71.5439 117.5 70.093 114.449 70.0111 96Z" fill="white" stroke="#602DAE" stroke-linecap="round" stroke-linejoin="round"/>
</svg>
