<svg width="776" height="282" viewBox="0 0 776 282" fill="none" xmlns="http://www.w3.org/2000/svg">
<path d="M1 176.082V174.078C4.42891 173.869 11.0535 172.052 11.0535 167.835V59.0965C11.0535 54.0649 5.22199 52.4575 1.39654 52.4575V50.4542H48.7015C72.0274 50.4542 88.5654 65.5258 88.5654 89.0299C88.7227 94.8279 87.6956 100.597 85.5466 105.985C83.3976 111.374 80.1718 116.269 76.0661 120.371C71.9604 124.473 67.0608 127.697 61.6662 129.846C56.2717 131.995 50.4953 133.024 44.6894 132.87H19.0309V170.444L11.2634 176.082H1ZM19.1242 130.657H44.7827C67.3155 130.657 78.7919 107.13 78.7919 87.4226C78.7919 68.9268 69.1349 52.4808 48.7948 52.4808H19.1242V130.657Z" fill="#602DAE"/>
<path d="M138.623 86.0249C157.284 86.0249 181.566 98.8369 181.566 130.052C181.566 159.007 159.43 177.293 135.264 177.293C116.743 177.293 92.6008 164.434 92.6008 133.266C92.6008 104.311 114.527 86.0249 138.623 86.0249ZM140.092 173.379C145.812 173.338 151.452 172.034 156.607 169.559C196.471 144.448 170.299 89.9617 134.261 89.9617C128.541 90.0029 122.901 91.3075 117.746 93.782C77.9755 118.8 104.077 173.379 140.092 173.379Z" fill="#602DAE"/>
<path d="M194.862 176.082V173.077C194.862 173.077 204.518 174.078 204.518 167.439V96.2745C204.518 91.8486 201.299 89.6356 194.862 89.6356V87.6323H205.521L212.519 95.6689V117.985C219.167 104.917 229.64 86.0249 253.176 87.7021V106.99L248.138 93.0133C248.138 93.0133 229.874 87.4226 213.965 119.592C213.296 120.996 212.825 122.485 212.566 124.018V176.082H194.862Z" fill="#602DAE"/>
<path d="M263.3 87.6322C268.567 87.7342 273.664 85.7726 277.501 82.1676C281.337 78.5626 283.608 73.6007 283.827 68.3444C283.827 61.4958 280.817 58.2812 276.572 58.2812V56.9068H288.655C296.306 70.1614 284.433 84.4409 272.747 87.6555H307.386V89.6589H284.06V142.537C284.06 164.644 290.894 174.101 303.164 175.313C303.374 175.313 308.412 157.399 308.412 157.399L310.021 176.035H303.164C289.495 176.035 275.989 171.609 275.989 142.468V89.6356H262.25V87.6322H263.3Z" fill="#602DAE"/>
<path d="M341.395 87.6322C336.374 84.1395 332.398 79.3483 329.895 73.772C321.848 54.0649 352.638 45.609 373.585 48.1481L380.419 43.9317V68.3444L373.585 49.7088C373.585 49.7088 328.099 43.6755 340.159 79.0599C340.996 82.1147 342.285 85.0276 343.984 87.7021H379.813V89.5191H344.59V170.444L336.543 176.082H326.466V173.077C326.466 173.077 336.543 174.078 336.543 167.835V89.5191H320.028V87.7021L341.395 87.6322Z" fill="#602DAE"/>
<path d="M427.561 86.0249C446.081 86.0249 470.434 98.8835 470.434 130.052C470.434 159.007 448.297 177.293 424.132 177.293C405.611 177.293 381.445 164.434 381.445 133.266C381.445 104.311 403.395 86.0249 427.561 86.0249ZM428.96 173.263C434.68 173.222 440.32 171.917 445.475 169.443C485.316 144.331 459.167 89.8452 423.129 89.8452C417.409 89.8864 411.769 91.191 406.614 93.6655C366.773 118.8 392.875 173.379 428.96 173.379V173.263ZM435.795 62.3111L437.428 62.9168L438.431 64.5241L416.877 75.5424L416.691 74.7504L435.795 62.3111Z" fill="#602DAE"/>
<path d="M483.846 50.4542H501.97V167.649C501.97 171.26 505.376 173.473 512.024 174.078V176.082H493.923V57.6755C493.923 54.2512 490.494 52.4575 483.846 52.4575V50.4542Z" fill="#602DAE"/>
<path d="M525.576 87.6322H543.7V167.649C543.7 171.26 547.129 173.473 553.777 174.078V176.081H535.653V96.0649C535.653 92.4542 532.224 90.2412 525.576 89.6356V87.6322ZM538.475 51.0366L546.126 58.6772L538.475 66.5274L530.615 58.6772L538.475 51.0366Z" fill="#602DAE"/>
<path d="M611.952 86.0249C630.449 86.0249 654.825 98.8835 654.825 130.052C654.825 159.007 632.665 177.293 608.523 177.293C590.002 177.293 565.837 164.434 565.837 133.266C565.837 104.311 587.786 86.0249 611.952 86.0249ZM613.351 173.263C619.071 173.222 624.711 171.917 629.866 169.443C669.707 144.331 643.535 89.8452 607.52 89.8452C601.8 89.8864 596.161 91.191 591.005 93.6655C551.141 118.8 577.313 173.379 613.351 173.379V173.263Z" fill="#602DAE"/>
<path d="M610.366 64.5241C610.063 122.131 605.491 131.659 544.493 131.659C605.514 131.659 610.063 141.186 610.319 198.794C610.576 141.186 615.148 131.659 676.168 131.659C615.171 131.659 610.622 122.131 610.366 64.5241Z" fill="#602DAE"/>
<path d="M610.319 1.23291V50.3377M610.319 212.98V245.918M610.319 253.559V269.353M656.388 177.572L691.33 212.468M638.683 200.215L654.568 238.557M654.825 24.5507L636.397 68.9268M714.819 27.5091L651.513 90.7304M715.589 131.845H690.794M768.539 131.845H725.736M707.401 172.331L679.014 160.591M725.736 84.1148L668.774 107.689M752.887 72.8868L743.44 76.8003M774.767 200.215L732.664 182.79M723.94 179.18L716.149 175.965M662.616 257.938L672.086 280.767M1 176.082V174.078C4.42891 173.869 11.0535 172.052 11.0535 167.835V59.0965C11.0535 54.0649 5.22199 52.4575 1.39654 52.4575V50.4542H48.7015C72.0274 50.4542 88.5654 65.5258 88.5654 89.0299C88.7227 94.8279 87.6956 100.597 85.5466 105.985C83.3976 111.374 80.1718 116.269 76.0661 120.371C71.9604 124.473 67.0608 127.697 61.6662 129.846C56.2717 131.995 50.4953 133.024 44.6894 132.87H19.0309V170.444L11.2634 176.082H1ZM19.1242 130.657H44.7827C67.3155 130.657 78.7919 107.13 78.7919 87.4226C78.7919 68.9268 69.135 52.4808 48.7948 52.4808H19.1242V130.657ZM138.623 86.0249C157.284 86.0249 181.566 98.8369 181.566 130.052C181.566 159.007 159.43 177.293 135.264 177.293C116.743 177.293 92.6008 164.434 92.6008 133.266C92.6008 104.311 114.527 86.0249 138.623 86.0249ZM140.092 173.379C145.812 173.338 151.452 172.034 156.607 169.559C196.471 144.448 170.299 89.9617 134.261 89.9617C128.541 90.0029 122.901 91.3075 117.746 93.782C77.9755 118.8 104.077 173.379 140.092 173.379ZM194.862 176.082V173.077C194.862 173.077 204.518 174.078 204.518 167.439V96.2745C204.518 91.8486 201.299 89.6356 194.862 89.6356V87.6323H205.521L212.519 95.6689V117.985C219.167 104.917 229.64 86.0249 253.176 87.7021V106.99L248.138 93.0133C248.138 93.0133 229.874 87.4226 213.965 119.592C213.296 120.996 212.825 122.485 212.566 124.018V176.082H194.862ZM263.3 87.6322C268.567 87.7342 273.664 85.7726 277.501 82.1676C281.337 78.5626 283.608 73.6007 283.827 68.3444C283.827 61.4958 280.817 58.2812 276.572 58.2812V56.9068H288.655C296.306 70.1614 284.433 84.4409 272.747 87.6555H307.386V89.6589H284.06V142.537C284.06 164.644 290.894 174.101 303.164 175.313C303.374 175.313 308.412 157.399 308.412 157.399L310.021 176.035H303.164C289.495 176.035 275.989 171.609 275.989 142.468V89.6356H262.25V87.6322H263.3ZM341.395 87.6322C336.374 84.1395 332.398 79.3483 329.895 73.772C321.848 54.0649 352.638 45.609 373.585 48.1481L380.419 43.9317V68.3444L373.585 49.7088C373.585 49.7088 328.099 43.6755 340.159 79.0599C340.996 82.1147 342.285 85.0276 343.984 87.7021H379.813V89.5191H344.59V170.444L336.543 176.082H326.466V173.077C326.466 173.077 336.543 174.078 336.543 167.835V89.5191H320.028V87.7021L341.395 87.6322ZM427.561 86.0249C446.081 86.0249 470.434 98.8835 470.434 130.052C470.434 159.007 448.297 177.293 424.132 177.293C405.611 177.293 381.445 164.434 381.445 133.266C381.445 104.311 403.395 86.0249 427.561 86.0249ZM428.96 173.263C434.68 173.222 440.32 171.917 445.475 169.443C485.316 144.331 459.167 89.8452 423.129 89.8452C417.409 89.8864 411.769 91.191 406.614 93.6655C366.773 118.8 392.875 173.379 428.96 173.379V173.263ZM435.795 62.3111L437.428 62.9168L438.431 64.5241L416.877 75.5424L416.691 74.7504L435.795 62.3111ZM483.846 50.4542H501.97V167.649C501.97 171.26 505.376 173.473 512.024 174.078V176.082H493.923V57.6755C493.923 54.2512 490.494 52.4575 483.846 52.4575V50.4542ZM525.576 87.6322H543.7V167.649C543.7 171.26 547.129 173.473 553.777 174.078V176.081H535.653V96.0649C535.653 92.4542 532.224 90.2412 525.576 89.6356V87.6322ZM538.475 51.0366L546.126 58.6772L538.475 66.5274L530.615 58.6772L538.475 51.0366ZM611.952 86.0249C630.449 86.0249 654.825 98.8835 654.825 130.052C654.825 159.007 632.665 177.293 608.523 177.293C590.002 177.293 565.837 164.434 565.837 133.266C565.837 104.311 587.786 86.0249 611.952 86.0249ZM613.351 173.263C619.071 173.222 624.711 171.917 629.866 169.443C669.707 144.331 643.535 89.8452 607.52 89.8452C601.8 89.8864 596.161 91.191 591.005 93.6655C551.141 118.8 577.313 173.379 613.351 173.379V173.263ZM610.366 64.5241C610.063 122.131 605.491 131.659 544.493 131.659C605.514 131.659 610.063 141.186 610.319 198.794C610.576 141.186 615.148 131.659 676.168 131.659C615.171 131.659 610.622 122.131 610.366 64.5241Z" stroke="#602DAE" stroke-linecap="round"/>
</svg>
